<mxfile host="Electron" agent="Mozilla/5.0 (Macintosh; Intel Mac OS X 10_15_7) AppleWebKit/537.36 (KHTML, like Gecko) draw.io/24.7.17 Chrome/128.0.6613.36 Electron/32.0.1 Safari/537.36" version="24.7.17">
  <diagram name="Page-1" id="unaeE6EB1jlO95VMAEBj">
    <mxGraphModel dx="1865" dy="1256" grid="1" gridSize="10" guides="1" tooltips="1" connect="1" arrows="1" fold="1" page="1" pageScale="1" pageWidth="850" pageHeight="1100" math="0" shadow="0">
      <root>
        <mxCell id="0" />
        <mxCell id="1" parent="0" />
        <mxCell id="bx4LAaXa7Sn3-yxyuSLQ-15" value="" style="rounded=0;whiteSpace=wrap;html=1;strokeWidth=2;" vertex="1" parent="1">
          <mxGeometry x="710" y="392" width="914" height="58" as="geometry" />
        </mxCell>
        <mxCell id="XU9uqifnlU7bni5nOm7B-28" value="" style="endArrow=none;html=1;rounded=0;strokeWidth=4;" parent="1" edge="1">
          <mxGeometry width="50" height="50" relative="1" as="geometry">
            <mxPoint x="500" y="340" as="sourcePoint" />
            <mxPoint x="500" y="20" as="targetPoint" />
          </mxGeometry>
        </mxCell>
        <mxCell id="XU9uqifnlU7bni5nOm7B-9" value="" style="group" parent="1" vertex="1" connectable="0">
          <mxGeometry x="340" y="80" width="1280" height="40" as="geometry" />
        </mxCell>
        <mxCell id="XU9uqifnlU7bni5nOm7B-1" value="" style="rounded=0;whiteSpace=wrap;html=1;fillColor=#dae8fc;strokeColor=#6c8ebf;strokeWidth=4;" parent="XU9uqifnlU7bni5nOm7B-9" vertex="1">
          <mxGeometry width="160" height="40" as="geometry" />
        </mxCell>
        <mxCell id="XU9uqifnlU7bni5nOm7B-2" value="" style="rounded=0;whiteSpace=wrap;html=1;fillColor=#d5e8d4;strokeColor=#82b366;strokeWidth=4;" parent="XU9uqifnlU7bni5nOm7B-9" vertex="1">
          <mxGeometry x="160" width="160" height="40" as="geometry" />
        </mxCell>
        <mxCell id="XU9uqifnlU7bni5nOm7B-3" value="" style="rounded=0;whiteSpace=wrap;html=1;fillColor=#ffe6cc;strokeColor=#d79b00;strokeWidth=4;" parent="XU9uqifnlU7bni5nOm7B-9" vertex="1">
          <mxGeometry x="320" width="160" height="40" as="geometry" />
        </mxCell>
        <mxCell id="XU9uqifnlU7bni5nOm7B-4" value="" style="rounded=0;whiteSpace=wrap;html=1;strokeColor=#d6b656;fillColor=#fff2cc;strokeWidth=4;" parent="XU9uqifnlU7bni5nOm7B-9" vertex="1">
          <mxGeometry x="480" width="160" height="40" as="geometry" />
        </mxCell>
        <mxCell id="XU9uqifnlU7bni5nOm7B-5" value="" style="rounded=0;whiteSpace=wrap;html=1;fillColor=#dae8fc;strokeColor=#6c8ebf;strokeWidth=4;" parent="XU9uqifnlU7bni5nOm7B-9" vertex="1">
          <mxGeometry x="640" width="160" height="40" as="geometry" />
        </mxCell>
        <mxCell id="XU9uqifnlU7bni5nOm7B-6" value="" style="rounded=0;whiteSpace=wrap;html=1;fillColor=#d5e8d4;strokeColor=#82b366;strokeWidth=4;" parent="XU9uqifnlU7bni5nOm7B-9" vertex="1">
          <mxGeometry x="800" width="160" height="40" as="geometry" />
        </mxCell>
        <mxCell id="XU9uqifnlU7bni5nOm7B-7" value="" style="rounded=0;whiteSpace=wrap;html=1;fillColor=#ffe6cc;strokeColor=#d79b00;strokeWidth=4;" parent="XU9uqifnlU7bni5nOm7B-9" vertex="1">
          <mxGeometry x="960" width="160" height="40" as="geometry" />
        </mxCell>
        <mxCell id="XU9uqifnlU7bni5nOm7B-8" value="" style="rounded=0;whiteSpace=wrap;html=1;strokeColor=#d6b656;fillColor=#fff2cc;strokeWidth=4;" parent="XU9uqifnlU7bni5nOm7B-9" vertex="1">
          <mxGeometry x="1120" width="160" height="40" as="geometry" />
        </mxCell>
        <mxCell id="XU9uqifnlU7bni5nOm7B-29" value="" style="group" parent="1" vertex="1" connectable="0">
          <mxGeometry x="340" y="180" width="1280" height="40" as="geometry" />
        </mxCell>
        <mxCell id="XU9uqifnlU7bni5nOm7B-10" value="" style="group" parent="XU9uqifnlU7bni5nOm7B-29" vertex="1" connectable="0">
          <mxGeometry width="640" height="40" as="geometry" />
        </mxCell>
        <mxCell id="XU9uqifnlU7bni5nOm7B-11" value="" style="rounded=0;whiteSpace=wrap;html=1;fillColor=#dae8fc;strokeColor=#6c8ebf;strokeWidth=4;" parent="XU9uqifnlU7bni5nOm7B-10" vertex="1">
          <mxGeometry width="80" height="40" as="geometry" />
        </mxCell>
        <mxCell id="XU9uqifnlU7bni5nOm7B-12" value="" style="rounded=0;whiteSpace=wrap;html=1;fillColor=#d5e8d4;strokeColor=#82b366;strokeWidth=4;" parent="XU9uqifnlU7bni5nOm7B-10" vertex="1">
          <mxGeometry x="80" width="80" height="40" as="geometry" />
        </mxCell>
        <mxCell id="XU9uqifnlU7bni5nOm7B-13" value="" style="rounded=0;whiteSpace=wrap;html=1;fillColor=#ffe6cc;strokeColor=#d79b00;strokeWidth=4;" parent="XU9uqifnlU7bni5nOm7B-10" vertex="1">
          <mxGeometry x="160" width="80" height="40" as="geometry" />
        </mxCell>
        <mxCell id="XU9uqifnlU7bni5nOm7B-14" value="" style="rounded=0;whiteSpace=wrap;html=1;strokeColor=#d6b656;fillColor=#fff2cc;strokeWidth=4;" parent="XU9uqifnlU7bni5nOm7B-10" vertex="1">
          <mxGeometry x="240" width="80" height="40" as="geometry" />
        </mxCell>
        <mxCell id="XU9uqifnlU7bni5nOm7B-15" value="" style="rounded=0;whiteSpace=wrap;html=1;fillColor=#dae8fc;strokeColor=#6c8ebf;strokeWidth=4;" parent="XU9uqifnlU7bni5nOm7B-10" vertex="1">
          <mxGeometry x="320" width="80" height="40" as="geometry" />
        </mxCell>
        <mxCell id="XU9uqifnlU7bni5nOm7B-16" value="" style="rounded=0;whiteSpace=wrap;html=1;fillColor=#d5e8d4;strokeColor=#82b366;strokeWidth=4;" parent="XU9uqifnlU7bni5nOm7B-10" vertex="1">
          <mxGeometry x="400" width="80" height="40" as="geometry" />
        </mxCell>
        <mxCell id="XU9uqifnlU7bni5nOm7B-17" value="" style="rounded=0;whiteSpace=wrap;html=1;fillColor=#ffe6cc;strokeColor=#d79b00;strokeWidth=4;" parent="XU9uqifnlU7bni5nOm7B-10" vertex="1">
          <mxGeometry x="480" width="80" height="40" as="geometry" />
        </mxCell>
        <mxCell id="XU9uqifnlU7bni5nOm7B-18" value="" style="rounded=0;whiteSpace=wrap;html=1;strokeColor=#d6b656;fillColor=#fff2cc;strokeWidth=4;" parent="XU9uqifnlU7bni5nOm7B-10" vertex="1">
          <mxGeometry x="560" width="80" height="40" as="geometry" />
        </mxCell>
        <mxCell id="XU9uqifnlU7bni5nOm7B-19" value="" style="group" parent="XU9uqifnlU7bni5nOm7B-29" vertex="1" connectable="0">
          <mxGeometry x="640" width="640" height="40" as="geometry" />
        </mxCell>
        <mxCell id="XU9uqifnlU7bni5nOm7B-20" value="" style="rounded=0;whiteSpace=wrap;html=1;fillColor=#dae8fc;strokeColor=#6c8ebf;strokeWidth=4;" parent="XU9uqifnlU7bni5nOm7B-19" vertex="1">
          <mxGeometry width="80" height="40" as="geometry" />
        </mxCell>
        <mxCell id="XU9uqifnlU7bni5nOm7B-21" value="" style="rounded=0;whiteSpace=wrap;html=1;fillColor=#d5e8d4;strokeColor=#82b366;strokeWidth=4;" parent="XU9uqifnlU7bni5nOm7B-19" vertex="1">
          <mxGeometry x="80" width="80" height="40" as="geometry" />
        </mxCell>
        <mxCell id="XU9uqifnlU7bni5nOm7B-22" value="" style="rounded=0;whiteSpace=wrap;html=1;fillColor=#ffe6cc;strokeColor=#d79b00;strokeWidth=4;" parent="XU9uqifnlU7bni5nOm7B-19" vertex="1">
          <mxGeometry x="160" width="80" height="40" as="geometry" />
        </mxCell>
        <mxCell id="XU9uqifnlU7bni5nOm7B-23" value="" style="rounded=0;whiteSpace=wrap;html=1;strokeColor=#d6b656;fillColor=#fff2cc;strokeWidth=4;" parent="XU9uqifnlU7bni5nOm7B-19" vertex="1">
          <mxGeometry x="240" width="80" height="40" as="geometry" />
        </mxCell>
        <mxCell id="XU9uqifnlU7bni5nOm7B-24" value="" style="rounded=0;whiteSpace=wrap;html=1;fillColor=#dae8fc;strokeColor=#6c8ebf;strokeWidth=4;" parent="XU9uqifnlU7bni5nOm7B-19" vertex="1">
          <mxGeometry x="320" width="80" height="40" as="geometry" />
        </mxCell>
        <mxCell id="XU9uqifnlU7bni5nOm7B-25" value="" style="rounded=0;whiteSpace=wrap;html=1;fillColor=#d5e8d4;strokeColor=#82b366;strokeWidth=4;" parent="XU9uqifnlU7bni5nOm7B-19" vertex="1">
          <mxGeometry x="400" width="80" height="40" as="geometry" />
        </mxCell>
        <mxCell id="XU9uqifnlU7bni5nOm7B-26" value="" style="rounded=0;whiteSpace=wrap;html=1;fillColor=#ffe6cc;strokeColor=#d79b00;strokeWidth=4;" parent="XU9uqifnlU7bni5nOm7B-19" vertex="1">
          <mxGeometry x="480" width="80" height="40" as="geometry" />
        </mxCell>
        <mxCell id="XU9uqifnlU7bni5nOm7B-27" value="" style="rounded=0;whiteSpace=wrap;html=1;strokeColor=#d6b656;fillColor=#fff2cc;strokeWidth=4;" parent="XU9uqifnlU7bni5nOm7B-19" vertex="1">
          <mxGeometry x="560" width="80" height="40" as="geometry" />
        </mxCell>
        <mxCell id="XU9uqifnlU7bni5nOm7B-30" value="" style="group" parent="1" vertex="1" connectable="0">
          <mxGeometry x="340" y="280" width="640" height="40" as="geometry" />
        </mxCell>
        <mxCell id="XU9uqifnlU7bni5nOm7B-31" value="" style="group" parent="XU9uqifnlU7bni5nOm7B-30" vertex="1" connectable="0">
          <mxGeometry width="320" height="40" as="geometry" />
        </mxCell>
        <mxCell id="XU9uqifnlU7bni5nOm7B-32" value="" style="rounded=0;whiteSpace=wrap;html=1;fillColor=#dae8fc;strokeColor=#6c8ebf;strokeWidth=4;" parent="XU9uqifnlU7bni5nOm7B-31" vertex="1">
          <mxGeometry width="40" height="40" as="geometry" />
        </mxCell>
        <mxCell id="XU9uqifnlU7bni5nOm7B-33" value="" style="rounded=0;whiteSpace=wrap;html=1;fillColor=#d5e8d4;strokeColor=#82b366;strokeWidth=4;" parent="XU9uqifnlU7bni5nOm7B-31" vertex="1">
          <mxGeometry x="40" width="40" height="40" as="geometry" />
        </mxCell>
        <mxCell id="XU9uqifnlU7bni5nOm7B-34" value="" style="rounded=0;whiteSpace=wrap;html=1;fillColor=#ffe6cc;strokeColor=#d79b00;strokeWidth=4;" parent="XU9uqifnlU7bni5nOm7B-31" vertex="1">
          <mxGeometry x="80" width="40" height="40" as="geometry" />
        </mxCell>
        <mxCell id="XU9uqifnlU7bni5nOm7B-35" value="" style="rounded=0;whiteSpace=wrap;html=1;strokeColor=#d6b656;fillColor=#fff2cc;strokeWidth=4;" parent="XU9uqifnlU7bni5nOm7B-31" vertex="1">
          <mxGeometry x="120" width="40" height="40" as="geometry" />
        </mxCell>
        <mxCell id="XU9uqifnlU7bni5nOm7B-36" value="" style="rounded=0;whiteSpace=wrap;html=1;fillColor=#dae8fc;strokeColor=#6c8ebf;strokeWidth=4;" parent="XU9uqifnlU7bni5nOm7B-31" vertex="1">
          <mxGeometry x="160" width="40" height="40" as="geometry" />
        </mxCell>
        <mxCell id="XU9uqifnlU7bni5nOm7B-37" value="" style="rounded=0;whiteSpace=wrap;html=1;fillColor=#d5e8d4;strokeColor=#82b366;strokeWidth=4;" parent="XU9uqifnlU7bni5nOm7B-31" vertex="1">
          <mxGeometry x="200" width="40" height="40" as="geometry" />
        </mxCell>
        <mxCell id="XU9uqifnlU7bni5nOm7B-38" value="" style="rounded=0;whiteSpace=wrap;html=1;fillColor=#ffe6cc;strokeColor=#d79b00;strokeWidth=4;" parent="XU9uqifnlU7bni5nOm7B-31" vertex="1">
          <mxGeometry x="240" width="40" height="40" as="geometry" />
        </mxCell>
        <mxCell id="XU9uqifnlU7bni5nOm7B-39" value="" style="rounded=0;whiteSpace=wrap;html=1;strokeColor=#d6b656;fillColor=#fff2cc;strokeWidth=4;" parent="XU9uqifnlU7bni5nOm7B-31" vertex="1">
          <mxGeometry x="280" width="40" height="40" as="geometry" />
        </mxCell>
        <mxCell id="XU9uqifnlU7bni5nOm7B-40" value="" style="group" parent="XU9uqifnlU7bni5nOm7B-30" vertex="1" connectable="0">
          <mxGeometry x="320" width="320" height="40" as="geometry" />
        </mxCell>
        <mxCell id="XU9uqifnlU7bni5nOm7B-41" value="" style="rounded=0;whiteSpace=wrap;html=1;fillColor=#dae8fc;strokeColor=#6c8ebf;strokeWidth=4;" parent="XU9uqifnlU7bni5nOm7B-40" vertex="1">
          <mxGeometry width="40" height="40" as="geometry" />
        </mxCell>
        <mxCell id="XU9uqifnlU7bni5nOm7B-42" value="" style="rounded=0;whiteSpace=wrap;html=1;fillColor=#d5e8d4;strokeColor=#82b366;strokeWidth=4;" parent="XU9uqifnlU7bni5nOm7B-40" vertex="1">
          <mxGeometry x="40" width="40" height="40" as="geometry" />
        </mxCell>
        <mxCell id="XU9uqifnlU7bni5nOm7B-43" value="" style="rounded=0;whiteSpace=wrap;html=1;fillColor=#ffe6cc;strokeColor=#d79b00;strokeWidth=4;" parent="XU9uqifnlU7bni5nOm7B-40" vertex="1">
          <mxGeometry x="80" width="40" height="40" as="geometry" />
        </mxCell>
        <mxCell id="XU9uqifnlU7bni5nOm7B-44" value="" style="rounded=0;whiteSpace=wrap;html=1;strokeColor=#d6b656;fillColor=#fff2cc;strokeWidth=4;" parent="XU9uqifnlU7bni5nOm7B-40" vertex="1">
          <mxGeometry x="120" width="40" height="40" as="geometry" />
        </mxCell>
        <mxCell id="XU9uqifnlU7bni5nOm7B-45" value="" style="rounded=0;whiteSpace=wrap;html=1;fillColor=#dae8fc;strokeColor=#6c8ebf;strokeWidth=4;" parent="XU9uqifnlU7bni5nOm7B-40" vertex="1">
          <mxGeometry x="160" width="40" height="40" as="geometry" />
        </mxCell>
        <mxCell id="XU9uqifnlU7bni5nOm7B-46" value="" style="rounded=0;whiteSpace=wrap;html=1;fillColor=#d5e8d4;strokeColor=#82b366;strokeWidth=4;" parent="XU9uqifnlU7bni5nOm7B-40" vertex="1">
          <mxGeometry x="200" width="40" height="40" as="geometry" />
        </mxCell>
        <mxCell id="XU9uqifnlU7bni5nOm7B-47" value="" style="rounded=0;whiteSpace=wrap;html=1;fillColor=#ffe6cc;strokeColor=#d79b00;strokeWidth=4;" parent="XU9uqifnlU7bni5nOm7B-40" vertex="1">
          <mxGeometry x="240" width="40" height="40" as="geometry" />
        </mxCell>
        <mxCell id="XU9uqifnlU7bni5nOm7B-48" value="" style="rounded=0;whiteSpace=wrap;html=1;strokeColor=#d6b656;fillColor=#fff2cc;strokeWidth=4;" parent="XU9uqifnlU7bni5nOm7B-40" vertex="1">
          <mxGeometry x="280" width="40" height="40" as="geometry" />
        </mxCell>
        <mxCell id="XU9uqifnlU7bni5nOm7B-49" value="" style="group" parent="1" vertex="1" connectable="0">
          <mxGeometry x="980" y="280" width="640" height="40" as="geometry" />
        </mxCell>
        <mxCell id="XU9uqifnlU7bni5nOm7B-50" value="" style="group" parent="XU9uqifnlU7bni5nOm7B-49" vertex="1" connectable="0">
          <mxGeometry width="320" height="40" as="geometry" />
        </mxCell>
        <mxCell id="XU9uqifnlU7bni5nOm7B-51" value="" style="rounded=0;whiteSpace=wrap;html=1;fillColor=#dae8fc;strokeColor=#6c8ebf;strokeWidth=4;" parent="XU9uqifnlU7bni5nOm7B-50" vertex="1">
          <mxGeometry width="40" height="40" as="geometry" />
        </mxCell>
        <mxCell id="XU9uqifnlU7bni5nOm7B-52" value="" style="rounded=0;whiteSpace=wrap;html=1;fillColor=#d5e8d4;strokeColor=#82b366;strokeWidth=4;" parent="XU9uqifnlU7bni5nOm7B-50" vertex="1">
          <mxGeometry x="40" width="40" height="40" as="geometry" />
        </mxCell>
        <mxCell id="XU9uqifnlU7bni5nOm7B-53" value="" style="rounded=0;whiteSpace=wrap;html=1;fillColor=#ffe6cc;strokeColor=#d79b00;strokeWidth=4;" parent="XU9uqifnlU7bni5nOm7B-50" vertex="1">
          <mxGeometry x="80" width="40" height="40" as="geometry" />
        </mxCell>
        <mxCell id="XU9uqifnlU7bni5nOm7B-54" value="" style="rounded=0;whiteSpace=wrap;html=1;strokeColor=#d6b656;fillColor=#fff2cc;strokeWidth=4;" parent="XU9uqifnlU7bni5nOm7B-50" vertex="1">
          <mxGeometry x="120" width="40" height="40" as="geometry" />
        </mxCell>
        <mxCell id="XU9uqifnlU7bni5nOm7B-55" value="" style="rounded=0;whiteSpace=wrap;html=1;fillColor=#dae8fc;strokeColor=#6c8ebf;strokeWidth=4;" parent="XU9uqifnlU7bni5nOm7B-50" vertex="1">
          <mxGeometry x="160" width="40" height="40" as="geometry" />
        </mxCell>
        <mxCell id="XU9uqifnlU7bni5nOm7B-56" value="" style="rounded=0;whiteSpace=wrap;html=1;fillColor=#d5e8d4;strokeColor=#82b366;strokeWidth=4;" parent="XU9uqifnlU7bni5nOm7B-50" vertex="1">
          <mxGeometry x="200" width="40" height="40" as="geometry" />
        </mxCell>
        <mxCell id="XU9uqifnlU7bni5nOm7B-57" value="" style="rounded=0;whiteSpace=wrap;html=1;fillColor=#ffe6cc;strokeColor=#d79b00;strokeWidth=4;" parent="XU9uqifnlU7bni5nOm7B-50" vertex="1">
          <mxGeometry x="240" width="40" height="40" as="geometry" />
        </mxCell>
        <mxCell id="XU9uqifnlU7bni5nOm7B-58" value="" style="rounded=0;whiteSpace=wrap;html=1;strokeColor=#d6b656;fillColor=#fff2cc;strokeWidth=4;" parent="XU9uqifnlU7bni5nOm7B-50" vertex="1">
          <mxGeometry x="280" width="40" height="40" as="geometry" />
        </mxCell>
        <mxCell id="XU9uqifnlU7bni5nOm7B-59" value="" style="group" parent="XU9uqifnlU7bni5nOm7B-49" vertex="1" connectable="0">
          <mxGeometry x="320" width="320" height="40" as="geometry" />
        </mxCell>
        <mxCell id="XU9uqifnlU7bni5nOm7B-60" value="" style="rounded=0;whiteSpace=wrap;html=1;fillColor=#dae8fc;strokeColor=#6c8ebf;strokeWidth=4;" parent="XU9uqifnlU7bni5nOm7B-59" vertex="1">
          <mxGeometry width="40" height="40" as="geometry" />
        </mxCell>
        <mxCell id="XU9uqifnlU7bni5nOm7B-61" value="" style="rounded=0;whiteSpace=wrap;html=1;fillColor=#d5e8d4;strokeColor=#82b366;strokeWidth=4;" parent="XU9uqifnlU7bni5nOm7B-59" vertex="1">
          <mxGeometry x="40" width="40" height="40" as="geometry" />
        </mxCell>
        <mxCell id="XU9uqifnlU7bni5nOm7B-62" value="" style="rounded=0;whiteSpace=wrap;html=1;fillColor=#ffe6cc;strokeColor=#d79b00;strokeWidth=4;" parent="XU9uqifnlU7bni5nOm7B-59" vertex="1">
          <mxGeometry x="80" width="40" height="40" as="geometry" />
        </mxCell>
        <mxCell id="XU9uqifnlU7bni5nOm7B-63" value="" style="rounded=0;whiteSpace=wrap;html=1;strokeColor=#d6b656;fillColor=#fff2cc;strokeWidth=4;" parent="XU9uqifnlU7bni5nOm7B-59" vertex="1">
          <mxGeometry x="120" width="40" height="40" as="geometry" />
        </mxCell>
        <mxCell id="XU9uqifnlU7bni5nOm7B-64" value="" style="rounded=0;whiteSpace=wrap;html=1;fillColor=#dae8fc;strokeColor=#6c8ebf;strokeWidth=4;" parent="XU9uqifnlU7bni5nOm7B-59" vertex="1">
          <mxGeometry x="160" width="40" height="40" as="geometry" />
        </mxCell>
        <mxCell id="XU9uqifnlU7bni5nOm7B-65" value="" style="rounded=0;whiteSpace=wrap;html=1;fillColor=#d5e8d4;strokeColor=#82b366;strokeWidth=4;" parent="XU9uqifnlU7bni5nOm7B-59" vertex="1">
          <mxGeometry x="200" width="40" height="40" as="geometry" />
        </mxCell>
        <mxCell id="XU9uqifnlU7bni5nOm7B-66" value="" style="rounded=0;whiteSpace=wrap;html=1;fillColor=#ffe6cc;strokeColor=#d79b00;strokeWidth=4;" parent="XU9uqifnlU7bni5nOm7B-59" vertex="1">
          <mxGeometry x="240" width="40" height="40" as="geometry" />
        </mxCell>
        <mxCell id="XU9uqifnlU7bni5nOm7B-67" value="" style="rounded=0;whiteSpace=wrap;html=1;strokeColor=#d6b656;fillColor=#fff2cc;strokeWidth=4;" parent="XU9uqifnlU7bni5nOm7B-59" vertex="1">
          <mxGeometry x="280" width="40" height="40" as="geometry" />
        </mxCell>
        <mxCell id="XU9uqifnlU7bni5nOm7B-68" value="" style="endArrow=none;html=1;rounded=0;strokeWidth=4;" parent="1" edge="1">
          <mxGeometry width="50" height="50" relative="1" as="geometry">
            <mxPoint x="660" y="340" as="sourcePoint" />
            <mxPoint x="660" y="20" as="targetPoint" />
          </mxGeometry>
        </mxCell>
        <mxCell id="XU9uqifnlU7bni5nOm7B-69" value="" style="endArrow=none;html=1;rounded=0;strokeWidth=4;" parent="1" edge="1">
          <mxGeometry width="50" height="50" relative="1" as="geometry">
            <mxPoint x="820" y="340" as="sourcePoint" />
            <mxPoint x="820" y="20" as="targetPoint" />
          </mxGeometry>
        </mxCell>
        <mxCell id="XU9uqifnlU7bni5nOm7B-70" value="" style="endArrow=none;html=1;rounded=0;strokeWidth=4;" parent="1" edge="1">
          <mxGeometry width="50" height="50" relative="1" as="geometry">
            <mxPoint x="980" y="340" as="sourcePoint" />
            <mxPoint x="980" y="20" as="targetPoint" />
          </mxGeometry>
        </mxCell>
        <mxCell id="XU9uqifnlU7bni5nOm7B-71" value="" style="endArrow=none;html=1;rounded=0;strokeWidth=4;" parent="1" edge="1">
          <mxGeometry width="50" height="50" relative="1" as="geometry">
            <mxPoint x="1140" y="340" as="sourcePoint" />
            <mxPoint x="1140" y="20" as="targetPoint" />
          </mxGeometry>
        </mxCell>
        <mxCell id="XU9uqifnlU7bni5nOm7B-72" value="" style="endArrow=none;html=1;rounded=0;strokeWidth=4;" parent="1" edge="1">
          <mxGeometry width="50" height="50" relative="1" as="geometry">
            <mxPoint x="1300" y="340" as="sourcePoint" />
            <mxPoint x="1300" y="20" as="targetPoint" />
          </mxGeometry>
        </mxCell>
        <mxCell id="XU9uqifnlU7bni5nOm7B-73" value="" style="endArrow=none;html=1;rounded=0;strokeWidth=4;" parent="1" edge="1">
          <mxGeometry width="50" height="50" relative="1" as="geometry">
            <mxPoint x="1460" y="340" as="sourcePoint" />
            <mxPoint x="1460" y="20" as="targetPoint" />
          </mxGeometry>
        </mxCell>
        <mxCell id="XU9uqifnlU7bni5nOm7B-74" value="" style="endArrow=none;html=1;rounded=0;strokeWidth=4;" parent="1" edge="1">
          <mxGeometry width="50" height="50" relative="1" as="geometry">
            <mxPoint x="1620" y="340" as="sourcePoint" />
            <mxPoint x="1620" y="20" as="targetPoint" />
          </mxGeometry>
        </mxCell>
        <mxCell id="XU9uqifnlU7bni5nOm7B-75" value="" style="endArrow=none;html=1;rounded=0;strokeWidth=4;" parent="1" edge="1">
          <mxGeometry width="50" height="50" relative="1" as="geometry">
            <mxPoint x="340" y="340" as="sourcePoint" />
            <mxPoint x="340" y="20" as="targetPoint" />
          </mxGeometry>
        </mxCell>
        <mxCell id="XU9uqifnlU7bni5nOm7B-76" value="sample 1" style="text;html=1;align=center;verticalAlign=middle;whiteSpace=wrap;rounded=0;fontSize=22;" parent="1" vertex="1">
          <mxGeometry x="355" y="25" width="120" height="30" as="geometry" />
        </mxCell>
        <mxCell id="XU9uqifnlU7bni5nOm7B-77" value="sample 2" style="text;html=1;align=center;verticalAlign=middle;whiteSpace=wrap;rounded=0;fontSize=22;" parent="1" vertex="1">
          <mxGeometry x="519" y="25" width="120" height="30" as="geometry" />
        </mxCell>
        <mxCell id="XU9uqifnlU7bni5nOm7B-78" value="sample 3" style="text;html=1;align=center;verticalAlign=middle;whiteSpace=wrap;rounded=0;fontSize=22;" parent="1" vertex="1">
          <mxGeometry x="679" y="25" width="120" height="30" as="geometry" />
        </mxCell>
        <mxCell id="XU9uqifnlU7bni5nOm7B-79" value="sample 4" style="text;html=1;align=center;verticalAlign=middle;whiteSpace=wrap;rounded=0;fontSize=22;" parent="1" vertex="1">
          <mxGeometry x="835" y="25" width="120" height="30" as="geometry" />
        </mxCell>
        <mxCell id="XU9uqifnlU7bni5nOm7B-80" value="sample 5" style="text;html=1;align=center;verticalAlign=middle;whiteSpace=wrap;rounded=0;fontSize=22;" parent="1" vertex="1">
          <mxGeometry x="999" y="25" width="120" height="30" as="geometry" />
        </mxCell>
        <mxCell id="XU9uqifnlU7bni5nOm7B-81" value="sample 6" style="text;html=1;align=center;verticalAlign=middle;whiteSpace=wrap;rounded=0;fontSize=22;" parent="1" vertex="1">
          <mxGeometry x="1159" y="25" width="120" height="30" as="geometry" />
        </mxCell>
        <mxCell id="XU9uqifnlU7bni5nOm7B-82" value="sample 7" style="text;html=1;align=center;verticalAlign=middle;whiteSpace=wrap;rounded=0;fontSize=22;" parent="1" vertex="1">
          <mxGeometry x="1315" y="25" width="120" height="30" as="geometry" />
        </mxCell>
        <mxCell id="XU9uqifnlU7bni5nOm7B-83" value="sample 8" style="text;html=1;align=center;verticalAlign=middle;whiteSpace=wrap;rounded=0;fontSize=22;" parent="1" vertex="1">
          <mxGeometry x="1479" y="25" width="120" height="30" as="geometry" />
        </mxCell>
        <mxCell id="XU9uqifnlU7bni5nOm7B-89" value="" style="group;fontSize=18;" parent="1" vertex="1" connectable="0">
          <mxGeometry x="38" y="87" width="382" height="225" as="geometry" />
        </mxCell>
        <mxCell id="XU9uqifnlU7bni5nOm7B-86" value="Distributed Data Parallel&lt;div style=&quot;font-size: 20px;&quot;&gt;Distributed 4-DP x 1-CP&lt;/div&gt;" style="text;html=1;align=left;verticalAlign=middle;whiteSpace=wrap;rounded=0;fontSize=20;fontStyle=0" parent="XU9uqifnlU7bni5nOm7B-89" vertex="1">
          <mxGeometry x="-23.15151515151515" width="381.99999999999994" height="30" as="geometry" />
        </mxCell>
        <mxCell id="XU9uqifnlU7bni5nOm7B-87" value="&lt;div style=&quot;font-size: 20px;&quot;&gt;Distributed Data+Context Parallel&lt;/div&gt;&lt;div style=&quot;font-size: 20px;&quot;&gt;2-DP x 2-CP&lt;/div&gt;" style="text;html=1;align=left;verticalAlign=middle;whiteSpace=wrap;rounded=0;fontSize=20;fontStyle=0" parent="XU9uqifnlU7bni5nOm7B-89" vertex="1">
          <mxGeometry x="-23.15151515151515" y="95" width="381.99999999999994" height="30" as="geometry" />
        </mxCell>
        <mxCell id="XU9uqifnlU7bni5nOm7B-88" value="&lt;div style=&quot;font-size: 20px;&quot;&gt;Distributed Context Parallel&lt;/div&gt;&lt;div style=&quot;font-size: 20px;&quot;&gt;&lt;span style=&quot;background-color: initial;&quot;&gt;1-DP x 4-CP&lt;/span&gt;&lt;/div&gt;" style="text;html=1;align=left;verticalAlign=middle;whiteSpace=wrap;rounded=0;fontSize=20;fontStyle=0" parent="XU9uqifnlU7bni5nOm7B-89" vertex="1">
          <mxGeometry x="-23.15151515151515" y="195" width="381.99999999999994" height="30" as="geometry" />
        </mxCell>
        <mxCell id="bx4LAaXa7Sn3-yxyuSLQ-9" value="" style="rounded=0;whiteSpace=wrap;html=1;strokeColor=#d6b656;fillColor=#fff2cc;strokeWidth=4;imageWidth=20;" vertex="1" parent="1">
          <mxGeometry x="1459" y="405" width="40" height="30" as="geometry" />
        </mxCell>
        <mxCell id="bx4LAaXa7Sn3-yxyuSLQ-8" value="" style="rounded=0;whiteSpace=wrap;html=1;fillColor=#ffe6cc;strokeColor=#d79b00;strokeWidth=4;imageWidth=20;" vertex="1" parent="1">
          <mxGeometry x="1249" y="405" width="39" height="30" as="geometry" />
        </mxCell>
        <mxCell id="bx4LAaXa7Sn3-yxyuSLQ-7" value="" style="rounded=0;whiteSpace=wrap;html=1;fillColor=#d5e8d4;strokeColor=#82b366;strokeWidth=4;imageWidth=20;" vertex="1" parent="1">
          <mxGeometry x="1039" y="405" width="39" height="30" as="geometry" />
        </mxCell>
        <mxCell id="bx4LAaXa7Sn3-yxyuSLQ-6" value="" style="rounded=0;whiteSpace=wrap;html=1;fillColor=#dae8fc;strokeColor=#6c8ebf;strokeWidth=4;imageWidth=20;" vertex="1" parent="1">
          <mxGeometry x="837" y="405" width="40" height="30" as="geometry" />
        </mxCell>
        <mxCell id="bx4LAaXa7Sn3-yxyuSLQ-10" value="process 1" style="text;html=1;align=center;verticalAlign=middle;whiteSpace=wrap;rounded=0;fontSize=20;" vertex="1" parent="1">
          <mxGeometry x="875" y="405" width="120" height="30" as="geometry" />
        </mxCell>
        <mxCell id="bx4LAaXa7Sn3-yxyuSLQ-11" value="process 2" style="text;html=1;align=center;verticalAlign=middle;whiteSpace=wrap;rounded=0;fontSize=20;" vertex="1" parent="1">
          <mxGeometry x="1074" y="405" width="120" height="30" as="geometry" />
        </mxCell>
        <mxCell id="bx4LAaXa7Sn3-yxyuSLQ-13" value="process 3" style="text;html=1;align=center;verticalAlign=middle;whiteSpace=wrap;rounded=0;fontSize=20;" vertex="1" parent="1">
          <mxGeometry x="1284" y="405" width="120" height="30" as="geometry" />
        </mxCell>
        <mxCell id="bx4LAaXa7Sn3-yxyuSLQ-14" value="process 4" style="text;html=1;align=center;verticalAlign=middle;whiteSpace=wrap;rounded=0;fontSize=20;" vertex="1" parent="1">
          <mxGeometry x="1495" y="405" width="120" height="30" as="geometry" />
        </mxCell>
        <mxCell id="bx4LAaXa7Sn3-yxyuSLQ-16" value="&lt;b style=&quot;font-size: 20px;&quot;&gt;&lt;font style=&quot;font-size: 20px;&quot;&gt;Key:&lt;/font&gt;&lt;/b&gt;" style="text;whiteSpace=wrap;html=1;fontSize=20;" vertex="1" parent="1">
          <mxGeometry x="734" y="402" width="70" height="40" as="geometry" />
        </mxCell>
      </root>
    </mxGraphModel>
  </diagram>
</mxfile>
